<svg t="1720489650802" class="icon" viewBox="0 0 1024 1024" version="1.1" xmlns="http://www.w3.org/2000/svg" p-id="3158" width="200" height="200"><path d="M201.8 64h620.4c76.1 0 137.9 61.7 137.9 137.9v620.4c0 76.1-61.7 137.8-137.9 137.8H201.8c-76.1 0-137.9-61.7-137.9-137.8V201.8C63.9 125.7 125.7 64 201.8 64z" fill="#e6e6e6" p-id="3159" data-spm-anchor-id="a313x.search_index.0.i0.6b4b3a8178OHuR" class=""></path><path d="M822.2 132.9c38 0 68.9 30.9 68.9 68.9v620.4c0 38-30.9 68.9-68.9 68.9H201.8c-38 0-68.9-30.9-68.9-68.9V201.8c0-38 30.9-68.9 68.9-68.9h620.4m0-68.9H201.8c-76.1 0-137.9 61.7-137.9 137.9v620.4c0 76.1 61.7 137.8 137.9 137.8h620.4c76.1 0 137.9-61.7 137.9-137.8V201.8c0-76.1-61.8-137.8-137.9-137.8z" fill="#cdcdcd" p-id="3160" data-spm-anchor-id="a313x.search_index.0.i1.6b4b3a8178OHuR" class="selected"></path></svg>